<svg xmlns="http://www.w3.org/2000/svg" viewBox="0 0 1000 1250"><g id="branch_01" data-pivot="498.06,774.19"><path d="M498.06 774.19 C472.86 736.39 427.86 684.19 390.06 632.89" fill="none" stroke="#1F2A1C" stroke-width="22.3" stroke-linecap="round"/><path d="M498.06 774.19 C472.86 736.39 427.86 684.19 390.06 632.89" fill="none" stroke="#4E8A2F" stroke-width="6.3" stroke-linecap="round"/></g><g id="branch_02" data-pivot="501.94,766.43"><path d="M501.94 766.43 C535.38 729.47 579.38 676.67 609.3 626.51" fill="none" stroke="#1F2A1C" stroke-width="22.3" stroke-linecap="round"/><path d="M501.94 766.43 C535.38 729.47 579.38 676.67 609.3 626.51" fill="none" stroke="#4E8A2F" stroke-width="6.3" stroke-linecap="round"/></g><g id="branch_03" data-pivot="500,743.15"><path d="M500 743.15 C490.4 675.15 512 603.15 504 533.55" fill="none" stroke="#1F2A1C" stroke-width="22.3" stroke-linecap="round"/><path d="M500 743.15 C490.4 675.15 512 603.15 504 533.55" fill="none" stroke="#4E8A2F" stroke-width="6.3" stroke-linecap="round"/></g><g id="branch_04" data-pivot="498.06,801.35"><path d="M498.06 801.35 C451.66 798.15 379.66 793.35 325.26 777.35" fill="none" stroke="#1F2A1C" stroke-width="22.3" stroke-linecap="round"/><path d="M498.06 801.35 C451.66 798.15 379.66 793.35 325.26 777.35" fill="none" stroke="#4E8A2F" stroke-width="6.3" stroke-linecap="round"/></g><g id="branch_05" data-pivot="501.94,797.47"><path d="M501.94 797.47 C543.7 794.59 608.5 790.27 657.46 777.31" fill="none" stroke="#1F2A1C" stroke-width="22.3" stroke-linecap="round"/><path d="M501.94 797.47 C543.7 794.59 608.5 790.27 657.46 777.31" fill="none" stroke="#4E8A2F" stroke-width="6.3" stroke-linecap="round"/></g><g id="stem_main" data-pivot="500,845"><path d="M500 845 C500 801.35 498.06 762.55 500 718.9" fill="none" stroke="#1F2A1C" stroke-width="25" stroke-linecap="round"/><path d="M500 845 C500 801.35 498.06 762.55 500 718.9" fill="none" stroke="#4E8A2F" stroke-width="9" stroke-linecap="round"/></g></svg>
