<svg xmlns="http://www.w3.org/2000/svg" viewBox="0 0 1000 1250"><g id="branch_01" data-pivot="498.52,790.98"><path d="M498.52 790.98 C482.84 767.46 454.84 734.98 431.32 703.06" fill="none" stroke="#1F2A1C" stroke-width="21.6" stroke-linecap="round"/><path d="M498.52 790.98 C482.84 767.46 454.84 734.98 431.32 703.06" fill="none" stroke="#4E8A2F" stroke-width="5.6" stroke-linecap="round"/></g><g id="branch_02" data-pivot="501.48,785.06"><path d="M501.48 785.06 C518.96 765.74 541.96 738.14 557.6 711.92" fill="none" stroke="#1F2A1C" stroke-width="21.6" stroke-linecap="round"/><path d="M501.48 785.06 C518.96 765.74 541.96 738.14 557.6 711.92" fill="none" stroke="#4E8A2F" stroke-width="5.6" stroke-linecap="round"/></g><g id="branch_03" data-pivot="500,767.3" opacity="0"><path d="M500 767.3 C499.64 764.75 500.45 762.05 500.15 759.44" fill="none" stroke="#1F2A1C" stroke-width="21.6" stroke-linecap="round"/><path d="M500 767.3 C499.64 764.75 500.45 762.05 500.15 759.44" fill="none" stroke="#4E8A2F" stroke-width="5.6" stroke-linecap="round"/></g><g id="branch_04" data-pivot="498.52,811.7" opacity="0"><path d="M498.52 811.7 C496.78 811.58 494.08 811.4 492.04 810.8" fill="none" stroke="#1F2A1C" stroke-width="21.6" stroke-linecap="round"/><path d="M498.52 811.7 C496.78 811.58 494.08 811.4 492.04 810.8" fill="none" stroke="#4E8A2F" stroke-width="5.6" stroke-linecap="round"/></g><g id="branch_05" data-pivot="501.48,808.74" opacity="0"><path d="M501.48 808.74 C503.22 808.62 505.92 808.44 507.96 807.9" fill="none" stroke="#1F2A1C" stroke-width="21.6" stroke-linecap="round"/><path d="M501.48 808.74 C503.22 808.62 505.92 808.44 507.96 807.9" fill="none" stroke="#4E8A2F" stroke-width="5.6" stroke-linecap="round"/></g><g id="stem_main" data-pivot="500,845"><path d="M500 845 C500 811.7 498.52 782.1 500 748.8" fill="none" stroke="#1F2A1C" stroke-width="24" stroke-linecap="round"/><path d="M500 845 C500 811.7 498.52 782.1 500 748.8" fill="none" stroke="#4E8A2F" stroke-width="8" stroke-linecap="round"/></g></svg>
